<svg xmlns="http://www.w3.org/2000/svg" xmlns:xlink="http://www.w3.org/1999/xlink" width="500" zoomAndPan="magnify" viewBox="0 0 375 374.999991" height="500" preserveAspectRatio="xMidYMid meet" version="1.0"><defs><g/><clipPath id="64ea92c2ed"><path d="M 19 35 L 356 35 L 356 372 L 19 372 Z M 19 35 " clip-rule="nonzero"/></clipPath><clipPath id="3c2512ce22"><path d="M 19.804688 203.535156 L 187.835938 35.503906 L 355.863281 203.535156 L 187.835938 371.5625 Z M 19.804688 203.535156 " clip-rule="nonzero"/></clipPath><clipPath id="9e2a5d4552"><path d="M 19.804688 203.535156 L 187.5 35.839844 L 355.195312 203.535156 L 187.5 371.226562 Z M 19.804688 203.535156 " clip-rule="nonzero"/></clipPath><clipPath id="870cec8e85"><path d="M 135 218 L 243.882812 218 L 243.882812 236.859375 L 135 236.859375 Z M 135 218 " clip-rule="nonzero"/></clipPath><clipPath id="d6747f3e12"><path d="M 164 3.769531 L 186 3.769531 L 186 86 L 164 86 Z M 164 3.769531 " clip-rule="nonzero"/></clipPath></defs><g clip-path="url(#64ea92c2ed)"><g clip-path="url(#3c2512ce22)"><g clip-path="url(#9e2a5d4552)"><path fill="#c3b4ff" d="M 19.804688 203.535156 L 187.464844 35.875 L 355.121094 203.535156 L 187.464844 371.191406 Z M 19.804688 203.535156 " fill-opacity="1" fill-rule="nonzero"/></g></g></g><path fill="#000000" d="M 229.703125 155.164062 C 229.730469 155.246094 229.769531 155.328125 229.789062 155.410156 C 230.21875 157.109375 226.082031 158.289062 219.078125 159.050781 C 221.300781 169.511719 220.261719 180.542969 215.632812 190.324219 C 214.910156 191.847656 213.390625 192.738281 211.808594 192.738281 C 211.207031 192.738281 210.589844 192.605469 210.011719 192.335938 C 207.902344 191.332031 206.996094 188.820312 207.996094 186.710938 C 211.996094 178.28125 212.761719 168.707031 210.609375 159.699219 C 204.800781 160.007812 198.019531 160.148438 190.71875 160.148438 C 168.363281 160.148438 149.183594 156.175781 149.183594 150.839844 C 149.183594 150.472656 149.285156 150.128906 149.460938 149.800781 C 148.074219 151.460938 147.117188 154.144531 145.960938 158.890625 C 139.300781 186.25 152.988281 208.429688 172.628906 216.910156 C 178.109375 219.277344 184.046875 220.574219 190.144531 220.625 C 197.320312 220.625 204.121094 219.535156 210.136719 217.164062 C 224.234375 211.609375 233.976562 198.972656 233.976562 176.515625 C 233.957031 167.796875 231.9375 159.613281 229.703125 155.164062 Z M 206.683594 203.640625 C 204.253906 203.640625 202.28125 201.75 202.28125 199.425781 C 202.28125 197.09375 204.25 195.210938 206.683594 195.210938 C 209.117188 195.210938 211.085938 197.09375 211.085938 199.425781 C 211.085938 201.746094 209.113281 203.640625 206.683594 203.640625 Z M 206.683594 203.640625 " fill-opacity="1" fill-rule="nonzero"/><path fill="#000000" d="M 228.9375 153.800781 C 228.5 153.246094 227.914062 152.6875 227.179688 152.132812 C 227.847656 152.539062 228.4375 153.019531 228.847656 153.648438 C 228.878906 153.699219 228.910156 153.757812 228.9375 153.800781 Z M 228.9375 153.800781 " fill-opacity="1" fill-rule="nonzero"/><path fill="#80160d" d="M 229.703125 155.164062 C 229.453125 154.664062 229.191406 154.207031 228.9375 153.800781 C 229.296875 154.257812 229.550781 154.714844 229.703125 155.164062 Z M 229.703125 155.164062 " fill-opacity="1" fill-rule="nonzero"/><path fill="#80160d" d="M 219.078125 159.050781 C 218.367188 155.703125 217.3125 152.421875 215.949219 149.257812 C 215.625 148.511719 215.300781 147.769531 214.941406 147.039062 C 220.46875 148.433594 224.667969 150.238281 227.183594 152.136719 C 227.914062 152.6875 228.503906 153.246094 228.941406 153.804688 C 229.199219 154.207031 229.457031 154.664062 229.710938 155.167969 C 229.734375 155.253906 229.773438 155.332031 229.792969 155.414062 C 230.214844 157.109375 226.082031 158.289062 219.078125 159.050781 Z M 219.078125 159.050781 " fill-opacity="1" fill-rule="nonzero"/><path fill="#80160d" d="M 210.601562 159.699219 C 204.792969 160.007812 198.007812 160.148438 190.710938 160.148438 C 168.351562 160.148438 149.175781 156.175781 149.175781 150.839844 C 149.175781 150.472656 149.273438 150.128906 149.449219 149.800781 C 151.835938 145.355469 169.890625 144.335938 190.714844 144.335938 C 195.492188 144.335938 199.941406 144.609375 204.011719 145.082031 C 205.296875 146.921875 206.433594 148.835938 207.40625 150.828125 C 208.796875 153.679688 209.867188 156.65625 210.601562 159.699219 Z M 210.601562 159.699219 " fill-opacity="1" fill-rule="nonzero"/><path fill="#9f8af4" d="M 217.308594 217.835938 C 207.84375 223.945312 197.660156 224.695312 191.835938 224.488281 C 182.582031 224.167969 172.976562 221.878906 164.660156 217.53125 C 167.203125 217.285156 169.863281 217.074219 172.613281 216.910156 C 178.09375 219.277344 184.03125 220.574219 190.128906 220.625 C 197.304688 220.625 204.109375 219.535156 210.125 217.164062 C 212.609375 217.359375 215.015625 217.585938 217.308594 217.835938 Z M 217.308594 217.835938 " fill-opacity="1" fill-rule="nonzero"/><path fill="#9f8af4" d="M 211.085938 199.421875 C 211.085938 199.695312 211.058594 199.972656 211.003906 200.242188 C 210.945312 200.515625 210.863281 200.777344 210.75 201.035156 C 210.640625 201.289062 210.503906 201.53125 210.34375 201.761719 C 210.183594 201.992188 210 202.207031 209.796875 202.402344 C 209.59375 202.597656 209.371094 202.769531 209.128906 202.925781 C 208.890625 203.078125 208.636719 203.207031 208.367188 203.316406 C 208.101562 203.421875 207.828125 203.5 207.542969 203.554688 C 207.257812 203.609375 206.972656 203.636719 206.683594 203.636719 C 206.394531 203.636719 206.109375 203.609375 205.824219 203.554688 C 205.539062 203.5 205.265625 203.421875 205 203.316406 C 204.730469 203.207031 204.476562 203.078125 204.238281 202.925781 C 203.996094 202.769531 203.773438 202.597656 203.570312 202.402344 C 203.363281 202.207031 203.183594 201.992188 203.023438 201.761719 C 202.859375 201.53125 202.726562 201.289062 202.613281 201.035156 C 202.503906 200.777344 202.421875 200.515625 202.363281 200.242188 C 202.308594 199.972656 202.28125 199.695312 202.28125 199.421875 C 202.28125 199.144531 202.308594 198.871094 202.363281 198.597656 C 202.421875 198.328125 202.503906 198.0625 202.613281 197.808594 C 202.726562 197.550781 202.859375 197.308594 203.023438 197.078125 C 203.183594 196.847656 203.363281 196.636719 203.570312 196.441406 C 203.773438 196.246094 203.996094 196.070312 204.238281 195.914062 C 204.476562 195.761719 204.730469 195.632812 205 195.527344 C 205.265625 195.421875 205.539062 195.339844 205.824219 195.285156 C 206.109375 195.230469 206.394531 195.207031 206.683594 195.207031 C 206.972656 195.207031 207.257812 195.230469 207.542969 195.285156 C 207.828125 195.339844 208.101562 195.421875 208.367188 195.527344 C 208.636719 195.632812 208.890625 195.761719 209.128906 195.914062 C 209.371094 196.070312 209.59375 196.246094 209.796875 196.441406 C 210 196.636719 210.183594 196.847656 210.34375 197.078125 C 210.503906 197.308594 210.640625 197.550781 210.75 197.808594 C 210.863281 198.0625 210.945312 198.328125 211.003906 198.597656 C 211.058594 198.871094 211.085938 199.144531 211.085938 199.421875 Z M 211.085938 199.421875 " fill-opacity="1" fill-rule="nonzero"/><g clip-path="url(#870cec8e85)"><path fill="#9f8af4" d="M 243.878906 226.59375 C 243.878906 232.226562 219.535156 236.792969 189.507812 236.792969 C 159.476562 236.792969 135.132812 232.226562 135.132812 226.59375 C 135.132812 223.203125 143.96875 220.207031 157.550781 218.355469 C 166.773438 224.675781 178.441406 228.238281 191.679688 228.710938 C 192.25 228.730469 192.863281 228.738281 193.511719 228.738281 C 200.933594 228.738281 212.90625 227.140625 223.390625 218.632812 C 235.871094 220.496094 243.878906 223.367188 243.878906 226.59375 Z M 243.878906 226.59375 " fill-opacity="1" fill-rule="nonzero"/><path fill="#9f8af4" d="M 243.878906 226.59375 C 243.878906 232.226562 219.535156 236.792969 189.507812 236.792969 C 159.476562 236.792969 135.132812 232.226562 135.132812 226.59375 C 135.132812 223.203125 143.96875 220.207031 157.550781 218.355469 C 166.773438 224.675781 178.441406 228.238281 191.679688 228.710938 C 192.25 228.730469 192.863281 228.738281 193.511719 228.738281 C 200.933594 228.738281 212.90625 227.140625 223.390625 218.632812 C 235.871094 220.496094 243.878906 223.367188 243.878906 226.59375 Z M 243.878906 226.59375 " fill-opacity="1" fill-rule="nonzero"/></g><path fill="#9f8af4" d="M 211.085938 199.421875 C 211.085938 199.695312 211.058594 199.972656 211.003906 200.242188 C 210.945312 200.515625 210.863281 200.777344 210.75 201.035156 C 210.640625 201.289062 210.503906 201.53125 210.34375 201.761719 C 210.183594 201.992188 210 202.207031 209.796875 202.402344 C 209.59375 202.597656 209.371094 202.769531 209.128906 202.925781 C 208.890625 203.078125 208.636719 203.207031 208.367188 203.316406 C 208.101562 203.421875 207.828125 203.5 207.542969 203.554688 C 207.257812 203.609375 206.972656 203.636719 206.683594 203.636719 C 206.394531 203.636719 206.109375 203.609375 205.824219 203.554688 C 205.539062 203.5 205.265625 203.421875 205 203.316406 C 204.730469 203.207031 204.476562 203.078125 204.238281 202.925781 C 203.996094 202.769531 203.773438 202.597656 203.570312 202.402344 C 203.363281 202.207031 203.183594 201.992188 203.023438 201.761719 C 202.859375 201.53125 202.726562 201.289062 202.613281 201.035156 C 202.503906 200.777344 202.421875 200.515625 202.363281 200.242188 C 202.308594 199.972656 202.28125 199.695312 202.28125 199.421875 C 202.28125 199.144531 202.308594 198.871094 202.363281 198.597656 C 202.421875 198.328125 202.503906 198.0625 202.613281 197.808594 C 202.726562 197.550781 202.859375 197.308594 203.023438 197.078125 C 203.183594 196.847656 203.363281 196.636719 203.570312 196.441406 C 203.773438 196.246094 203.996094 196.070312 204.238281 195.914062 C 204.476562 195.761719 204.730469 195.632812 205 195.527344 C 205.265625 195.421875 205.539062 195.339844 205.824219 195.285156 C 206.109375 195.230469 206.394531 195.207031 206.683594 195.207031 C 206.972656 195.207031 207.257812 195.230469 207.542969 195.285156 C 207.828125 195.339844 208.101562 195.421875 208.367188 195.527344 C 208.636719 195.632812 208.890625 195.761719 209.128906 195.914062 C 209.371094 196.070312 209.59375 196.246094 209.796875 196.441406 C 210 196.636719 210.183594 196.847656 210.34375 197.078125 C 210.503906 197.308594 210.640625 197.550781 210.75 197.808594 C 210.863281 198.0625 210.945312 198.328125 211.003906 198.597656 C 211.058594 198.871094 211.085938 199.144531 211.085938 199.421875 Z M 211.085938 199.421875 " fill-opacity="1" fill-rule="nonzero"/><path fill="#9f8af4" d="M 215.628906 190.324219 C 214.90625 191.847656 213.386719 192.738281 211.804688 192.738281 C 211.199219 192.738281 210.585938 192.605469 210.007812 192.335938 C 207.898438 191.332031 206.992188 188.820312 207.992188 186.710938 C 211.992188 178.28125 212.757812 168.707031 210.605469 159.699219 C 209.875 156.65625 208.800781 153.671875 207.40625 150.820312 C 206.433594 148.828125 205.296875 146.914062 204.011719 145.074219 C 202.957031 143.578125 201.828125 142.121094 200.570312 140.746094 C 199 139.03125 199.121094 136.355469 200.847656 134.789062 C 202.570312 133.21875 205.242188 133.339844 206.816406 135.066406 C 210.132812 138.695312 212.839844 142.738281 214.945312 147.039062 C 215.304688 147.765625 215.628906 148.511719 215.953125 149.257812 C 217.324219 152.425781 218.371094 155.703125 219.082031 159.050781 C 221.296875 169.511719 220.261719 180.542969 215.628906 190.324219 Z M 215.628906 190.324219 " fill-opacity="1" fill-rule="nonzero"/><g clip-path="url(#d6747f3e12)"><path fill="#9f8af4" d="M 176.15625 59.609375 C 177.289062 61.636719 178.46875 64.453125 178.886719 66.359375 C 179.679688 70.828125 179.621094 80.398438 179.601562 85.28125 C 182.222656 77.210938 185.796875 65.191406 184.890625 56.5 C 184.464844 50.324219 180.582031 44.78125 177.953125 39.054688 C 174.820312 32.0625 172.761719 25.800781 172.480469 18.496094 C 172.425781 12.488281 174.796875 8.199219 177.476562 2.921875 C 175.824219 5.28125 174.035156 7.546875 172.414062 9.933594 C 169.492188 14.265625 167.007812 19.054688 165.800781 24.164062 C 163.695312 34.390625 165.351562 45.460938 171.796875 53.859375 C 173.199219 55.8125 174.835938 57.597656 176.15625 59.609375 Z M 176.15625 59.609375 " fill-opacity="1" fill-rule="nonzero"/></g><path fill="#9f8af4" d="M 197.140625 71.941406 C 197.429688 73.367188 198.332031 79.394531 197.507812 81.171875 C 197.109375 82.148438 197.074219 84.164062 196.136719 85.269531 C 202.875 79.75 203.425781 68.90625 200.878906 61.304688 C 200.148438 59.253906 198.835938 57.375 198.273438 55.261719 C 196.449219 50.835938 196.675781 46.179688 196.082031 41.589844 C 195.070312 45.507812 193.414062 49.316406 192.710938 53.285156 C 192.386719 56.300781 192.578125 59.386719 193.375 62.339844 C 194.640625 65.488281 196.519531 69.007812 197.140625 71.941406 Z M 197.140625 71.941406 " fill-opacity="1" fill-rule="nonzero"/><path fill="#e4e4e4" d="M 211.480469 91.839844 L 211.480469 92.800781 C 211.480469 94.867188 209.804688 96.535156 207.738281 96.535156 L 168.761719 96.535156 C 166.691406 96.535156 165.019531 94.863281 165.019531 92.800781 L 165.019531 91.839844 C 165.019531 89.773438 166.695312 88.105469 168.761719 88.105469 L 207.738281 88.105469 C 209.804688 88.101562 211.480469 89.773438 211.480469 91.839844 Z M 211.480469 91.839844 " fill-opacity="1" fill-rule="nonzero"/><path fill="#ffffff" d="M 241.511719 173.335938 C 241.511719 191.960938 236.34375 206.382812 226.160156 216.191406 C 225.25 217.066406 224.324219 217.867188 223.390625 218.621094 C 212.90625 227.136719 200.933594 228.730469 193.511719 228.730469 C 192.867188 228.730469 192.253906 228.71875 191.679688 228.699219 C 178.441406 228.230469 166.773438 224.667969 157.550781 218.347656 C 155.96875 217.257812 154.445312 216.105469 153.003906 214.851562 C 144.75 207.6875 139.300781 198.164062 137.660156 188.035156 C 131.394531 149.371094 151.027344 134.976562 161.574219 127.25 C 163.949219 125.515625 167.1875 123.132812 167.1875 122.191406 C 167.1875 116.222656 168.257812 103.421875 168.878906 96.53125 L 173.125 96.53125 C 172.515625 103.261719 171.414062 116.351562 171.414062 122.191406 C 171.414062 125.269531 168.332031 127.527344 164.070312 130.648438 C 153.570312 138.347656 135.980469 151.238281 141.828125 187.359375 C 144.136719 201.597656 153.171875 211.53125 164.648438 217.523438 C 172.964844 221.871094 182.566406 224.15625 191.820312 224.480469 C 197.644531 224.6875 207.828125 223.9375 217.292969 217.828125 C 219.316406 216.527344 221.308594 214.984375 223.210938 213.15625 C 232.535156 204.171875 237.269531 190.769531 237.269531 173.332031 C 237.269531 151.101562 222.699219 140.183594 213.066406 132.957031 C 208.496094 129.53125 205.203125 127.058594 204.597656 124.144531 C 204.011719 121.3125 202.707031 113.144531 202.539062 96.53125 L 206.761719 96.53125 C 206.914062 112.753906 208.171875 120.582031 208.726562 123.289062 C 209.007812 124.636719 212.359375 127.15625 215.597656 129.578125 C 225.300781 136.851562 241.511719 149 241.511719 173.335938 Z M 241.511719 173.335938 " fill-opacity="1" fill-rule="nonzero"/><path fill="#ffffff" d="M 177.28125 103.070312 C 176.894531 103.070312 176.582031 102.757812 176.582031 102.371094 C 176.582031 101.984375 176.894531 101.667969 177.28125 101.667969 L 196.496094 101.664062 C 196.882812 101.664062 197.199219 101.976562 197.199219 102.367188 C 197.199219 102.753906 196.882812 103.066406 196.496094 103.066406 Z M 177.28125 103.070312 " fill-opacity="1" fill-rule="nonzero"/><g fill="#9f8af4" fill-opacity="0.8"><g transform="translate(83.209994, 301.642778)"><g><path d="M 17.015625 -19.359375 C 18.546875 -19.359375 20.269531 -19.285156 22.1875 -19.140625 L 23.890625 -19.03125 L 24.796875 -18.984375 L 24.90625 -17.859375 C 24.9375 -17.472656 25.003906 -16.628906 25.109375 -15.328125 C 25.222656 -14.035156 25.28125 -12.925781 25.28125 -12 C 25.28125 -10.1875 25.132812 -8.390625 24.84375 -6.609375 C 24.601562 -5.015625 23.984375 -3.664062 22.984375 -2.5625 C 21.984375 -1.457031 20.722656 -0.617188 19.203125 -0.046875 C 16.609375 0.734375 14.207031 1.125 12 1.125 C 10.289062 1.125 8.742188 0.851562 7.359375 0.3125 C 4.546875 -0.925781 2.710938 -3.09375 1.859375 -6.1875 C 1.617188 -7.144531 1.40625 -8.390625 1.21875 -9.921875 C 1.21875 -9.523438 1.023438 -12.707031 0.640625 -19.46875 C 0.640625 -20.601562 0.65625 -21.507812 0.6875 -22.1875 C 0.757812 -25.382812 0.9375 -27.726562 1.21875 -29.21875 C 1.71875 -32.0625 2.875 -34.160156 4.6875 -35.515625 C 6.039062 -36.515625 7.890625 -37.191406 10.234375 -37.546875 C 11.054688 -37.648438 11.894531 -37.703125 12.75 -37.703125 C 16.300781 -37.703125 19.210938 -36.800781 21.484375 -35 C 23.765625 -33.207031 24.90625 -30.660156 24.90625 -27.359375 L 24.796875 -25.65625 L 24.796875 -24.90625 C 24.546875 -24.863281 24.242188 -24.84375 23.890625 -24.84375 C 23.535156 -24.84375 23.21875 -24.84375 22.9375 -24.84375 L 20.375 -24.84375 C 19.019531 -24.84375 17.722656 -24.914062 16.484375 -25.0625 C 15.628906 -27.976562 14.664062 -29.4375 13.59375 -29.4375 C 13.414062 -29.4375 13.21875 -29.453125 13 -29.484375 C 12.789062 -29.523438 12.597656 -29.546875 12.421875 -29.546875 C 11.859375 -29.546875 11.363281 -29.332031 10.9375 -28.90625 C 10.894531 -28.863281 10.769531 -28.4375 10.5625 -27.625 C 9.882812 -25.382812 9.546875 -22.078125 9.546875 -17.703125 C 9.546875 -15.535156 9.617188 -13.738281 9.765625 -12.3125 C 10.003906 -9.9375 10.484375 -8.425781 11.203125 -7.78125 C 11.554688 -7.570312 11.835938 -7.429688 12.046875 -7.359375 C 12.441406 -7.328125 12.914062 -7.351562 13.46875 -7.4375 C 14.019531 -7.53125 14.507812 -7.664062 14.9375 -7.84375 C 15.539062 -8.09375 15.929688 -8.660156 16.109375 -9.546875 C 16.210938 -9.972656 16.316406 -10.523438 16.421875 -11.203125 C 16.523438 -11.878906 16.5625 -12.285156 16.53125 -12.421875 L 15.25 -12.421875 C 13.9375 -12.347656 12.925781 -12.457031 12.21875 -12.75 C 12.144531 -13.488281 12.109375 -14.410156 12.109375 -15.515625 L 12.109375 -16.109375 C 12.109375 -16.242188 12.113281 -16.476562 12.125 -16.8125 C 12.144531 -17.15625 12.101562 -17.804688 12 -18.765625 C 12.28125 -18.765625 12.882812 -18.835938 13.8125 -18.984375 C 15.226562 -19.234375 16.296875 -19.359375 17.015625 -19.359375 Z M 17.015625 -19.359375 "/></g></g></g><g fill="#9f8af4" fill-opacity="0.8"><g transform="translate(108.858847, 301.642778)"><g><path d="M 25.59375 -4.75 C 25.59375 -2.9375 25.398438 -1.316406 25.015625 0.109375 C 23.453125 0.109375 21.140625 0.144531 18.078125 0.21875 L 11.09375 0.265625 C 7.925781 0.265625 4.757812 0.160156 1.59375 -0.046875 C 1.632812 -1.191406 1.582031 -5.617188 1.4375 -13.328125 C 1.332031 -17.703125 1.28125 -21.0625 1.28125 -23.40625 C 1.28125 -28.28125 1.40625 -32.816406 1.65625 -37.015625 L 6.34375 -37.171875 C 11.601562 -37.378906 15.617188 -37.484375 18.390625 -37.484375 C 20.773438 -37.484375 23.085938 -37.394531 25.328125 -37.21875 C 25.472656 -36.476562 25.546875 -35.609375 25.546875 -34.609375 C 25.546875 -34.078125 25.507812 -33.207031 25.4375 -32 C 25.363281 -30.863281 25.328125 -29.972656 25.328125 -29.328125 C 23.191406 -28.867188 20.8125 -28.640625 18.1875 -28.640625 L 11.25 -28.578125 C 11.070312 -26.910156 10.984375 -25.523438 10.984375 -24.421875 C 10.984375 -23.566406 11.09375 -22.820312 11.3125 -22.1875 L 14.828125 -22.609375 C 15.328125 -22.609375 16.070312 -22.570312 17.0625 -22.5 L 17.765625 -22.453125 C 17.941406 -21.378906 18.03125 -20.222656 18.03125 -18.984375 L 17.921875 -14.71875 C 16.785156 -14.394531 15.253906 -14.234375 13.328125 -14.234375 L 11.953125 -14.296875 C 11.703125 -14.296875 11.539062 -14.257812 11.46875 -14.1875 L 11.25 -11.40625 C 11.25 -9.945312 11.320312 -8.738281 11.46875 -7.78125 C 13.3125 -7.78125 15.109375 -7.726562 16.859375 -7.625 C 17.460938 -7.59375 18.207031 -7.554688 19.09375 -7.515625 C 19.976562 -7.484375 21.023438 -7.46875 22.234375 -7.46875 L 25.484375 -7.578125 C 25.554688 -5.941406 25.59375 -5 25.59375 -4.75 Z M 25.59375 -4.75 "/></g></g></g><g fill="#9f8af4" fill-opacity="0.8"><g transform="translate(134.507699, 301.642778)"><g><path d="M 25.59375 -4.75 C 25.59375 -2.9375 25.398438 -1.316406 25.015625 0.109375 C 23.453125 0.109375 21.140625 0.144531 18.078125 0.21875 L 11.09375 0.265625 C 7.925781 0.265625 4.757812 0.160156 1.59375 -0.046875 C 1.632812 -1.191406 1.582031 -5.617188 1.4375 -13.328125 C 1.332031 -17.703125 1.28125 -21.0625 1.28125 -23.40625 C 1.28125 -28.28125 1.40625 -32.816406 1.65625 -37.015625 L 6.34375 -37.171875 C 11.601562 -37.378906 15.617188 -37.484375 18.390625 -37.484375 C 20.773438 -37.484375 23.085938 -37.394531 25.328125 -37.21875 C 25.472656 -36.476562 25.546875 -35.609375 25.546875 -34.609375 C 25.546875 -34.078125 25.507812 -33.207031 25.4375 -32 C 25.363281 -30.863281 25.328125 -29.972656 25.328125 -29.328125 C 23.191406 -28.867188 20.8125 -28.640625 18.1875 -28.640625 L 11.25 -28.578125 C 11.070312 -26.910156 10.984375 -25.523438 10.984375 -24.421875 C 10.984375 -23.566406 11.09375 -22.820312 11.3125 -22.1875 L 14.828125 -22.609375 C 15.328125 -22.609375 16.070312 -22.570312 17.0625 -22.5 L 17.765625 -22.453125 C 17.941406 -21.378906 18.03125 -20.222656 18.03125 -18.984375 L 17.921875 -14.71875 C 16.785156 -14.394531 15.253906 -14.234375 13.328125 -14.234375 L 11.953125 -14.296875 C 11.703125 -14.296875 11.539062 -14.257812 11.46875 -14.1875 L 11.25 -11.40625 C 11.25 -9.945312 11.320312 -8.738281 11.46875 -7.78125 C 13.3125 -7.78125 15.109375 -7.726562 16.859375 -7.625 C 17.460938 -7.59375 18.207031 -7.554688 19.09375 -7.515625 C 19.976562 -7.484375 21.023438 -7.46875 22.234375 -7.46875 L 25.484375 -7.578125 C 25.554688 -5.941406 25.59375 -5 25.59375 -4.75 Z M 25.59375 -4.75 "/></g></g></g><g fill="#9f8af4" fill-opacity="0.8"><g transform="translate(160.156552, 301.642778)"><g><path d="M 25.546875 -0.109375 C 24.367188 0.171875 23.109375 0.3125 21.765625 0.3125 C 21.085938 0.3125 20.144531 0.28125 18.9375 0.21875 C 18.539062 0.175781 17.8125 0.15625 16.75 0.15625 C 15.789062 -0.976562 14.9375 -2.25 14.1875 -3.65625 C 13.4375 -5.0625 12.597656 -6.8125 11.671875 -8.90625 C 11.492188 -9.257812 11.34375 -9.65625 11.21875 -10.09375 C 11.09375 -10.539062 11.03125 -10.800781 11.03125 -10.875 L 10.875 -11.515625 L 10.671875 -12.21875 C 10.671875 -10.40625 10.703125 -8.144531 10.765625 -5.4375 C 10.835938 -3.238281 10.875 -1.476562 10.875 -0.15625 C 9.59375 0.195312 8.101562 0.375 6.40625 0.375 C 4.65625 0.375 3.019531 0.195312 1.5 -0.15625 C 1.351562 -3.25 1.28125 -6.753906 1.28125 -10.671875 C 1.28125 -14.898438 1.332031 -19.109375 1.4375 -23.296875 C 1.539062 -27.566406 1.59375 -32.316406 1.59375 -37.546875 C 2.769531 -37.578125 4.425781 -37.554688 6.5625 -37.484375 C 7.238281 -37.453125 8.5 -37.4375 10.34375 -37.4375 C 10.382812 -36.082031 10.40625 -32.773438 10.40625 -27.515625 L 10.40625 -26.453125 C 11.570312 -28.335938 12.53125 -30.039062 13.28125 -31.5625 C 14.519531 -33.945312 15.710938 -35.941406 16.859375 -37.546875 L 20.375 -37.484375 C 22.1875 -37.554688 23.890625 -37.46875 25.484375 -37.21875 C 25.054688 -35.726562 24.46875 -34.242188 23.71875 -32.765625 C 22.976562 -31.296875 21.929688 -29.382812 20.578125 -27.03125 L 20.265625 -26.5 C 18.910156 -24.363281 17.613281 -21.910156 16.375 -19.140625 Z M 25.546875 -0.109375 "/></g></g></g><g fill="#9f8af4" fill-opacity="0.8"><g transform="translate(184.632274, 301.642778)"><g/></g></g><g fill="#9f8af4" fill-opacity="0.8"><g transform="translate(195.297084, 301.642778)"><g><path d="M 24.578125 -37.109375 C 24.367188 -34.234375 23.800781 -28.300781 22.875 -19.3125 C 22.09375 -11.375 21.488281 -4.988281 21.0625 -0.15625 C 20.601562 -0.0195312 19.953125 0.0546875 19.109375 0.078125 C 18.273438 0.0976562 17.007812 0.109375 15.3125 0.109375 C 14.882812 -0.421875 14.535156 -1.085938 14.265625 -1.890625 C 13.992188 -2.691406 13.71875 -3.695312 13.4375 -4.90625 C 13.082031 -6.363281 12.816406 -7.304688 12.640625 -7.734375 C 11.460938 -3.609375 10.734375 -1.082031 10.453125 -0.15625 C 9.316406 0.0507812 8.210938 0.15625 7.140625 0.15625 C 6.148438 0.15625 5.207031 0.0859375 4.3125 -0.046875 L 4 -2.453125 C 3.070312 -7.960938 2.296875 -13.75 1.671875 -19.8125 C 1.054688 -25.875 0.640625 -31.695312 0.421875 -37.28125 C 1.804688 -37.53125 3.226562 -37.65625 4.6875 -37.65625 L 7.09375 -37.59375 C 8.082031 -37.519531 8.9375 -37.484375 9.65625 -37.484375 C 9.789062 -35.890625 9.859375 -33.007812 9.859375 -28.84375 L 9.859375 -27.84375 C 9.859375 -23.5 9.96875 -20.382812 10.1875 -18.5 C 10.332031 -19 10.507812 -19.78125 10.71875 -20.84375 C 10.894531 -21.875 11.085938 -22.742188 11.296875 -23.453125 C 11.515625 -24.171875 11.851562 -24.796875 12.3125 -25.328125 C 13.457031 -24.578125 14.332031 -22.300781 14.9375 -18.5 L 15.09375 -25.59375 C 15.238281 -31.207031 15.398438 -35.046875 15.578125 -37.109375 C 16.921875 -37.429688 18.445312 -37.59375 20.15625 -37.59375 C 21.539062 -37.59375 22.890625 -37.523438 24.203125 -37.390625 Z M 24.578125 -37.109375 "/></g></g></g><g fill="#9f8af4" fill-opacity="0.8"><g transform="translate(220.092753, 301.642778)"><g><path d="M 25.59375 -4.75 C 25.59375 -2.9375 25.398438 -1.316406 25.015625 0.109375 C 23.453125 0.109375 21.140625 0.144531 18.078125 0.21875 L 11.09375 0.265625 C 7.925781 0.265625 4.757812 0.160156 1.59375 -0.046875 C 1.632812 -1.191406 1.582031 -5.617188 1.4375 -13.328125 C 1.332031 -17.703125 1.28125 -21.0625 1.28125 -23.40625 C 1.28125 -28.28125 1.40625 -32.816406 1.65625 -37.015625 L 6.34375 -37.171875 C 11.601562 -37.378906 15.617188 -37.484375 18.390625 -37.484375 C 20.773438 -37.484375 23.085938 -37.394531 25.328125 -37.21875 C 25.472656 -36.476562 25.546875 -35.609375 25.546875 -34.609375 C 25.546875 -34.078125 25.507812 -33.207031 25.4375 -32 C 25.363281 -30.863281 25.328125 -29.972656 25.328125 -29.328125 C 23.191406 -28.867188 20.8125 -28.640625 18.1875 -28.640625 L 11.25 -28.578125 C 11.070312 -26.910156 10.984375 -25.523438 10.984375 -24.421875 C 10.984375 -23.566406 11.09375 -22.820312 11.3125 -22.1875 L 14.828125 -22.609375 C 15.328125 -22.609375 16.070312 -22.570312 17.0625 -22.5 L 17.765625 -22.453125 C 17.941406 -21.378906 18.03125 -20.222656 18.03125 -18.984375 L 17.921875 -14.71875 C 16.785156 -14.394531 15.253906 -14.234375 13.328125 -14.234375 L 11.953125 -14.296875 C 11.703125 -14.296875 11.539062 -14.257812 11.46875 -14.1875 L 11.25 -11.40625 C 11.25 -9.945312 11.320312 -8.738281 11.46875 -7.78125 C 13.3125 -7.78125 15.109375 -7.726562 16.859375 -7.625 C 17.460938 -7.59375 18.207031 -7.554688 19.09375 -7.515625 C 19.976562 -7.484375 21.023438 -7.46875 22.234375 -7.46875 L 25.484375 -7.578125 C 25.554688 -5.941406 25.59375 -5 25.59375 -4.75 Z M 25.59375 -4.75 "/></g></g></g><g fill="#9f8af4" fill-opacity="0.8"><g transform="translate(245.741606, 301.642778)"><g><path d="M 24.15625 0.15625 C 23.019531 0.40625 21.796875 0.53125 20.484375 0.53125 C 18.910156 0.53125 17.203125 0.335938 15.359375 -0.046875 C 15.109375 -0.722656 14.71875 -2.144531 14.1875 -4.3125 C 13.65625 -6.519531 13.226562 -7.976562 12.90625 -8.6875 L 11.84375 -8.75 L 10.9375 -8.6875 C 10.789062 -8.257812 10.554688 -7.210938 10.234375 -5.546875 C 9.984375 -4.160156 9.734375 -3.03125 9.484375 -2.15625 C 9.242188 -1.289062 8.890625 -0.5 8.421875 0.21875 C 8.066406 0.28125 7.535156 0.3125 6.828125 0.3125 C 6.503906 0.3125 5.8125 0.28125 4.75 0.21875 C 1.65625 0.0703125 -0.0664062 0 -0.421875 0 C -0.421875 -0.175781 -0.382812 -0.59375 -0.3125 -1.25 C -0.25 -1.90625 -0.144531 -2.644531 0 -3.46875 L 1.171875 -10.1875 C 2.097656 -15.695312 2.976562 -20.492188 3.8125 -24.578125 C 4.644531 -28.671875 5.738281 -32.992188 7.09375 -37.546875 C 7.59375 -37.617188 8.269531 -37.65625 9.125 -37.65625 L 9.4375 -37.65625 C 11.75 -37.65625 14.007812 -37.742188 16.21875 -37.921875 C 16.644531 -36.242188 17.035156 -34.597656 17.390625 -32.984375 C 17.742188 -31.367188 18.0625 -29.921875 18.34375 -28.640625 C 19.476562 -23.691406 20.242188 -20.398438 20.640625 -18.765625 Z M 13.015625 -15.515625 C 12.234375 -22.628906 11.859375 -26.1875 11.890625 -26.1875 L 11.84375 -26.71875 C 11.84375 -26.71875 11.804688 -26.289062 11.734375 -25.4375 C 11.628906 -22.769531 11.46875 -20.65625 11.25 -19.09375 L 10.765625 -15.515625 Z M 13.015625 -15.515625 "/></g></g></g><g fill="#9f8af4" fill-opacity="0.8"><g transform="translate(268.884233, 301.642778)"><g><path d="M 22.828125 -9.921875 C 24.242188 -7.753906 25.390625 -5.921875 26.265625 -4.421875 C 27.140625 -2.929688 27.859375 -1.421875 28.421875 0.109375 L 27.578125 0.109375 C 27.148438 0.109375 26.1875 0.144531 24.6875 0.21875 C 23.195312 0.28125 22.007812 0.3125 21.125 0.3125 C 20.625 0.3125 19.875 0.28125 18.875 0.21875 L 17.96875 0.15625 C 15.65625 -5.101562 13.59375 -9.046875 11.78125 -11.671875 L 11.78125 -10.296875 C 11.78125 -8.085938 11.90625 -5.242188 12.15625 -1.765625 L 12.15625 -1.8125 C 12.195312 -1.5625 12.21875 -1.132812 12.21875 -0.53125 C 11.007812 0.03125 9.015625 0.3125 6.234375 0.3125 L 4.953125 0.265625 L 2.140625 0.265625 C 1.742188 0.265625 1.546875 -2.953125 1.546875 -9.390625 C 1.546875 -15.210938 1.488281 -21.046875 1.375 -26.890625 C 1.269531 -32.742188 1.113281 -36.257812 0.90625 -37.4375 L 2.34375 -37.65625 C 4.476562 -37.9375 6.238281 -38.144531 7.625 -38.28125 C 9.007812 -38.425781 10.429688 -38.5 11.890625 -38.5 C 13.453125 -38.5 14.785156 -38.429688 15.890625 -38.296875 C 17.953125 -38.046875 19.878906 -37.332031 21.671875 -36.15625 C 23.472656 -34.976562 24.914062 -33.535156 26 -31.828125 C 27.082031 -30.128906 27.625 -28.375 27.625 -26.5625 C 27.625 -24.8125 27.054688 -22.90625 25.921875 -20.84375 C 25.203125 -19.570312 24.253906 -18.507812 23.078125 -17.65625 C 21.910156 -16.800781 20.507812 -16.285156 18.875 -16.109375 C 19.832031 -14.398438 20.953125 -12.617188 22.234375 -10.765625 C 22.484375 -10.335938 22.679688 -10.054688 22.828125 -9.921875 Z M 15.140625 -23.515625 C 15.640625 -23.660156 16.03125 -24.015625 16.3125 -24.578125 C 16.601562 -25.148438 16.75 -25.828125 16.75 -26.609375 C 16.75 -28.066406 16.390625 -29.007812 15.671875 -29.4375 C 15.210938 -29.71875 14.742188 -29.894531 14.265625 -29.96875 C 13.785156 -30.039062 13.242188 -30.078125 12.640625 -30.078125 L 10.34375 -29.703125 C 10.414062 -28.640625 10.453125 -27.734375 10.453125 -26.984375 C 10.453125 -25.066406 10.503906 -23.894531 10.609375 -23.46875 C 11.210938 -23.394531 11.960938 -23.359375 12.859375 -23.359375 C 13.671875 -23.359375 14.429688 -23.410156 15.140625 -23.515625 Z M 15.140625 -23.515625 "/></g></g></g><g fill="#000000" fill-opacity="1"><g transform="translate(80.852846, 299.285626)"><g><path d="M 17.015625 -19.359375 C 18.546875 -19.359375 20.269531 -19.285156 22.1875 -19.140625 L 23.890625 -19.03125 L 24.796875 -18.984375 L 24.90625 -17.859375 C 24.9375 -17.472656 25.003906 -16.628906 25.109375 -15.328125 C 25.222656 -14.035156 25.28125 -12.925781 25.28125 -12 C 25.28125 -10.1875 25.132812 -8.390625 24.84375 -6.609375 C 24.601562 -5.015625 23.984375 -3.664062 22.984375 -2.5625 C 21.984375 -1.457031 20.722656 -0.617188 19.203125 -0.046875 C 16.609375 0.734375 14.207031 1.125 12 1.125 C 10.289062 1.125 8.742188 0.851562 7.359375 0.3125 C 4.546875 -0.925781 2.710938 -3.09375 1.859375 -6.1875 C 1.617188 -7.144531 1.40625 -8.390625 1.21875 -9.921875 C 1.21875 -9.523438 1.023438 -12.707031 0.640625 -19.46875 C 0.640625 -20.601562 0.65625 -21.507812 0.6875 -22.1875 C 0.757812 -25.382812 0.9375 -27.726562 1.21875 -29.21875 C 1.71875 -32.0625 2.875 -34.160156 4.6875 -35.515625 C 6.039062 -36.515625 7.890625 -37.191406 10.234375 -37.546875 C 11.054688 -37.648438 11.894531 -37.703125 12.75 -37.703125 C 16.300781 -37.703125 19.210938 -36.800781 21.484375 -35 C 23.765625 -33.207031 24.90625 -30.660156 24.90625 -27.359375 L 24.796875 -25.65625 L 24.796875 -24.90625 C 24.546875 -24.863281 24.242188 -24.84375 23.890625 -24.84375 C 23.535156 -24.84375 23.21875 -24.84375 22.9375 -24.84375 L 20.375 -24.84375 C 19.019531 -24.84375 17.722656 -24.914062 16.484375 -25.0625 C 15.628906 -27.976562 14.664062 -29.4375 13.59375 -29.4375 C 13.414062 -29.4375 13.21875 -29.453125 13 -29.484375 C 12.789062 -29.523438 12.597656 -29.546875 12.421875 -29.546875 C 11.859375 -29.546875 11.363281 -29.332031 10.9375 -28.90625 C 10.894531 -28.863281 10.769531 -28.4375 10.5625 -27.625 C 9.882812 -25.382812 9.546875 -22.078125 9.546875 -17.703125 C 9.546875 -15.535156 9.617188 -13.738281 9.765625 -12.3125 C 10.003906 -9.9375 10.484375 -8.425781 11.203125 -7.78125 C 11.554688 -7.570312 11.835938 -7.429688 12.046875 -7.359375 C 12.441406 -7.328125 12.914062 -7.351562 13.46875 -7.4375 C 14.019531 -7.53125 14.507812 -7.664062 14.9375 -7.84375 C 15.539062 -8.09375 15.929688 -8.660156 16.109375 -9.546875 C 16.210938 -9.972656 16.316406 -10.523438 16.421875 -11.203125 C 16.523438 -11.878906 16.5625 -12.285156 16.53125 -12.421875 L 15.25 -12.421875 C 13.9375 -12.347656 12.925781 -12.457031 12.21875 -12.75 C 12.144531 -13.488281 12.109375 -14.410156 12.109375 -15.515625 L 12.109375 -16.109375 C 12.109375 -16.242188 12.113281 -16.476562 12.125 -16.8125 C 12.144531 -17.15625 12.101562 -17.804688 12 -18.765625 C 12.28125 -18.765625 12.882812 -18.835938 13.8125 -18.984375 C 15.226562 -19.234375 16.296875 -19.359375 17.015625 -19.359375 Z M 17.015625 -19.359375 "/></g></g></g><g fill="#000000" fill-opacity="1"><g transform="translate(106.501699, 299.285626)"><g><path d="M 25.59375 -4.75 C 25.59375 -2.9375 25.398438 -1.316406 25.015625 0.109375 C 23.453125 0.109375 21.140625 0.144531 18.078125 0.21875 L 11.09375 0.265625 C 7.925781 0.265625 4.757812 0.160156 1.59375 -0.046875 C 1.632812 -1.191406 1.582031 -5.617188 1.4375 -13.328125 C 1.332031 -17.703125 1.28125 -21.0625 1.28125 -23.40625 C 1.28125 -28.28125 1.40625 -32.816406 1.65625 -37.015625 L 6.34375 -37.171875 C 11.601562 -37.378906 15.617188 -37.484375 18.390625 -37.484375 C 20.773438 -37.484375 23.085938 -37.394531 25.328125 -37.21875 C 25.472656 -36.476562 25.546875 -35.609375 25.546875 -34.609375 C 25.546875 -34.078125 25.507812 -33.207031 25.4375 -32 C 25.363281 -30.863281 25.328125 -29.972656 25.328125 -29.328125 C 23.191406 -28.867188 20.8125 -28.640625 18.1875 -28.640625 L 11.25 -28.578125 C 11.070312 -26.910156 10.984375 -25.523438 10.984375 -24.421875 C 10.984375 -23.566406 11.09375 -22.820312 11.3125 -22.1875 L 14.828125 -22.609375 C 15.328125 -22.609375 16.070312 -22.570312 17.0625 -22.5 L 17.765625 -22.453125 C 17.941406 -21.378906 18.03125 -20.222656 18.03125 -18.984375 L 17.921875 -14.71875 C 16.785156 -14.394531 15.253906 -14.234375 13.328125 -14.234375 L 11.953125 -14.296875 C 11.703125 -14.296875 11.539062 -14.257812 11.46875 -14.1875 L 11.25 -11.40625 C 11.25 -9.945312 11.320312 -8.738281 11.46875 -7.78125 C 13.3125 -7.78125 15.109375 -7.726562 16.859375 -7.625 C 17.460938 -7.59375 18.207031 -7.554688 19.09375 -7.515625 C 19.976562 -7.484375 21.023438 -7.46875 22.234375 -7.46875 L 25.484375 -7.578125 C 25.554688 -5.941406 25.59375 -5 25.59375 -4.75 Z M 25.59375 -4.75 "/></g></g></g><g fill="#000000" fill-opacity="1"><g transform="translate(132.150552, 299.285626)"><g><path d="M 25.59375 -4.75 C 25.59375 -2.9375 25.398438 -1.316406 25.015625 0.109375 C 23.453125 0.109375 21.140625 0.144531 18.078125 0.21875 L 11.09375 0.265625 C 7.925781 0.265625 4.757812 0.160156 1.59375 -0.046875 C 1.632812 -1.191406 1.582031 -5.617188 1.4375 -13.328125 C 1.332031 -17.703125 1.28125 -21.0625 1.28125 -23.40625 C 1.28125 -28.28125 1.40625 -32.816406 1.65625 -37.015625 L 6.34375 -37.171875 C 11.601562 -37.378906 15.617188 -37.484375 18.390625 -37.484375 C 20.773438 -37.484375 23.085938 -37.394531 25.328125 -37.21875 C 25.472656 -36.476562 25.546875 -35.609375 25.546875 -34.609375 C 25.546875 -34.078125 25.507812 -33.207031 25.4375 -32 C 25.363281 -30.863281 25.328125 -29.972656 25.328125 -29.328125 C 23.191406 -28.867188 20.8125 -28.640625 18.1875 -28.640625 L 11.25 -28.578125 C 11.070312 -26.910156 10.984375 -25.523438 10.984375 -24.421875 C 10.984375 -23.566406 11.09375 -22.820312 11.3125 -22.1875 L 14.828125 -22.609375 C 15.328125 -22.609375 16.070312 -22.570312 17.0625 -22.5 L 17.765625 -22.453125 C 17.941406 -21.378906 18.03125 -20.222656 18.03125 -18.984375 L 17.921875 -14.71875 C 16.785156 -14.394531 15.253906 -14.234375 13.328125 -14.234375 L 11.953125 -14.296875 C 11.703125 -14.296875 11.539062 -14.257812 11.46875 -14.1875 L 11.25 -11.40625 C 11.25 -9.945312 11.320312 -8.738281 11.46875 -7.78125 C 13.3125 -7.78125 15.109375 -7.726562 16.859375 -7.625 C 17.460938 -7.59375 18.207031 -7.554688 19.09375 -7.515625 C 19.976562 -7.484375 21.023438 -7.46875 22.234375 -7.46875 L 25.484375 -7.578125 C 25.554688 -5.941406 25.59375 -5 25.59375 -4.75 Z M 25.59375 -4.75 "/></g></g></g><g fill="#000000" fill-opacity="1"><g transform="translate(157.799405, 299.285626)"><g><path d="M 25.546875 -0.109375 C 24.367188 0.171875 23.109375 0.3125 21.765625 0.3125 C 21.085938 0.3125 20.144531 0.28125 18.9375 0.21875 C 18.539062 0.175781 17.8125 0.15625 16.75 0.15625 C 15.789062 -0.976562 14.9375 -2.25 14.1875 -3.65625 C 13.4375 -5.0625 12.597656 -6.8125 11.671875 -8.90625 C 11.492188 -9.257812 11.34375 -9.65625 11.21875 -10.09375 C 11.09375 -10.539062 11.03125 -10.800781 11.03125 -10.875 L 10.875 -11.515625 L 10.671875 -12.21875 C 10.671875 -10.40625 10.703125 -8.144531 10.765625 -5.4375 C 10.835938 -3.238281 10.875 -1.476562 10.875 -0.15625 C 9.59375 0.195312 8.101562 0.375 6.40625 0.375 C 4.65625 0.375 3.019531 0.195312 1.5 -0.15625 C 1.351562 -3.25 1.28125 -6.753906 1.28125 -10.671875 C 1.28125 -14.898438 1.332031 -19.109375 1.4375 -23.296875 C 1.539062 -27.566406 1.59375 -32.316406 1.59375 -37.546875 C 2.769531 -37.578125 4.425781 -37.554688 6.5625 -37.484375 C 7.238281 -37.453125 8.5 -37.4375 10.34375 -37.4375 C 10.382812 -36.082031 10.40625 -32.773438 10.40625 -27.515625 L 10.40625 -26.453125 C 11.570312 -28.335938 12.53125 -30.039062 13.28125 -31.5625 C 14.519531 -33.945312 15.710938 -35.941406 16.859375 -37.546875 L 20.375 -37.484375 C 22.1875 -37.554688 23.890625 -37.46875 25.484375 -37.21875 C 25.054688 -35.726562 24.46875 -34.242188 23.71875 -32.765625 C 22.976562 -31.296875 21.929688 -29.382812 20.578125 -27.03125 L 20.265625 -26.5 C 18.910156 -24.363281 17.613281 -21.910156 16.375 -19.140625 Z M 25.546875 -0.109375 "/></g></g></g><g fill="#000000" fill-opacity="1"><g transform="translate(182.275127, 299.285626)"><g/></g></g><g fill="#000000" fill-opacity="1"><g transform="translate(192.939937, 299.285626)"><g><path d="M 24.578125 -37.109375 C 24.367188 -34.234375 23.800781 -28.300781 22.875 -19.3125 C 22.09375 -11.375 21.488281 -4.988281 21.0625 -0.15625 C 20.601562 -0.0195312 19.953125 0.0546875 19.109375 0.078125 C 18.273438 0.0976562 17.007812 0.109375 15.3125 0.109375 C 14.882812 -0.421875 14.535156 -1.085938 14.265625 -1.890625 C 13.992188 -2.691406 13.71875 -3.695312 13.4375 -4.90625 C 13.082031 -6.363281 12.816406 -7.304688 12.640625 -7.734375 C 11.460938 -3.609375 10.734375 -1.082031 10.453125 -0.15625 C 9.316406 0.0507812 8.210938 0.15625 7.140625 0.15625 C 6.148438 0.15625 5.207031 0.0859375 4.3125 -0.046875 L 4 -2.453125 C 3.070312 -7.960938 2.296875 -13.75 1.671875 -19.8125 C 1.054688 -25.875 0.640625 -31.695312 0.421875 -37.28125 C 1.804688 -37.53125 3.226562 -37.65625 4.6875 -37.65625 L 7.09375 -37.59375 C 8.082031 -37.519531 8.9375 -37.484375 9.65625 -37.484375 C 9.789062 -35.890625 9.859375 -33.007812 9.859375 -28.84375 L 9.859375 -27.84375 C 9.859375 -23.5 9.96875 -20.382812 10.1875 -18.5 C 10.332031 -19 10.507812 -19.78125 10.71875 -20.84375 C 10.894531 -21.875 11.085938 -22.742188 11.296875 -23.453125 C 11.515625 -24.171875 11.851562 -24.796875 12.3125 -25.328125 C 13.457031 -24.578125 14.332031 -22.300781 14.9375 -18.5 L 15.09375 -25.59375 C 15.238281 -31.207031 15.398438 -35.046875 15.578125 -37.109375 C 16.921875 -37.429688 18.445312 -37.59375 20.15625 -37.59375 C 21.539062 -37.59375 22.890625 -37.523438 24.203125 -37.390625 Z M 24.578125 -37.109375 "/></g></g></g><g fill="#000000" fill-opacity="1"><g transform="translate(217.735605, 299.285626)"><g><path d="M 25.59375 -4.75 C 25.59375 -2.9375 25.398438 -1.316406 25.015625 0.109375 C 23.453125 0.109375 21.140625 0.144531 18.078125 0.21875 L 11.09375 0.265625 C 7.925781 0.265625 4.757812 0.160156 1.59375 -0.046875 C 1.632812 -1.191406 1.582031 -5.617188 1.4375 -13.328125 C 1.332031 -17.703125 1.28125 -21.0625 1.28125 -23.40625 C 1.28125 -28.28125 1.40625 -32.816406 1.65625 -37.015625 L 6.34375 -37.171875 C 11.601562 -37.378906 15.617188 -37.484375 18.390625 -37.484375 C 20.773438 -37.484375 23.085938 -37.394531 25.328125 -37.21875 C 25.472656 -36.476562 25.546875 -35.609375 25.546875 -34.609375 C 25.546875 -34.078125 25.507812 -33.207031 25.4375 -32 C 25.363281 -30.863281 25.328125 -29.972656 25.328125 -29.328125 C 23.191406 -28.867188 20.8125 -28.640625 18.1875 -28.640625 L 11.25 -28.578125 C 11.070312 -26.910156 10.984375 -25.523438 10.984375 -24.421875 C 10.984375 -23.566406 11.09375 -22.820312 11.3125 -22.1875 L 14.828125 -22.609375 C 15.328125 -22.609375 16.070312 -22.570312 17.0625 -22.5 L 17.765625 -22.453125 C 17.941406 -21.378906 18.03125 -20.222656 18.03125 -18.984375 L 17.921875 -14.71875 C 16.785156 -14.394531 15.253906 -14.234375 13.328125 -14.234375 L 11.953125 -14.296875 C 11.703125 -14.296875 11.539062 -14.257812 11.46875 -14.1875 L 11.25 -11.40625 C 11.25 -9.945312 11.320312 -8.738281 11.46875 -7.78125 C 13.3125 -7.78125 15.109375 -7.726562 16.859375 -7.625 C 17.460938 -7.59375 18.207031 -7.554688 19.09375 -7.515625 C 19.976562 -7.484375 21.023438 -7.46875 22.234375 -7.46875 L 25.484375 -7.578125 C 25.554688 -5.941406 25.59375 -5 25.59375 -4.75 Z M 25.59375 -4.75 "/></g></g></g><g fill="#000000" fill-opacity="1"><g transform="translate(243.384458, 299.285626)"><g><path d="M 24.15625 0.15625 C 23.019531 0.40625 21.796875 0.53125 20.484375 0.53125 C 18.910156 0.53125 17.203125 0.335938 15.359375 -0.046875 C 15.109375 -0.722656 14.71875 -2.144531 14.1875 -4.3125 C 13.65625 -6.519531 13.226562 -7.976562 12.90625 -8.6875 L 11.84375 -8.75 L 10.9375 -8.6875 C 10.789062 -8.257812 10.554688 -7.210938 10.234375 -5.546875 C 9.984375 -4.160156 9.734375 -3.03125 9.484375 -2.15625 C 9.242188 -1.289062 8.890625 -0.5 8.421875 0.21875 C 8.066406 0.28125 7.535156 0.3125 6.828125 0.3125 C 6.503906 0.3125 5.8125 0.28125 4.75 0.21875 C 1.65625 0.0703125 -0.0664062 0 -0.421875 0 C -0.421875 -0.175781 -0.382812 -0.59375 -0.3125 -1.25 C -0.25 -1.90625 -0.144531 -2.644531 0 -3.46875 L 1.171875 -10.1875 C 2.097656 -15.695312 2.976562 -20.492188 3.8125 -24.578125 C 4.644531 -28.671875 5.738281 -32.992188 7.09375 -37.546875 C 7.59375 -37.617188 8.269531 -37.65625 9.125 -37.65625 L 9.4375 -37.65625 C 11.75 -37.65625 14.007812 -37.742188 16.21875 -37.921875 C 16.644531 -36.242188 17.035156 -34.597656 17.390625 -32.984375 C 17.742188 -31.367188 18.0625 -29.921875 18.34375 -28.640625 C 19.476562 -23.691406 20.242188 -20.398438 20.640625 -18.765625 Z M 13.015625 -15.515625 C 12.234375 -22.628906 11.859375 -26.1875 11.890625 -26.1875 L 11.84375 -26.71875 C 11.84375 -26.71875 11.804688 -26.289062 11.734375 -25.4375 C 11.628906 -22.769531 11.46875 -20.65625 11.25 -19.09375 L 10.765625 -15.515625 Z M 13.015625 -15.515625 "/></g></g></g><g fill="#000000" fill-opacity="1"><g transform="translate(266.527085, 299.285626)"><g><path d="M 22.828125 -9.921875 C 24.242188 -7.753906 25.390625 -5.921875 26.265625 -4.421875 C 27.140625 -2.929688 27.859375 -1.421875 28.421875 0.109375 L 27.578125 0.109375 C 27.148438 0.109375 26.1875 0.144531 24.6875 0.21875 C 23.195312 0.28125 22.007812 0.3125 21.125 0.3125 C 20.625 0.3125 19.875 0.28125 18.875 0.21875 L 17.96875 0.15625 C 15.65625 -5.101562 13.59375 -9.046875 11.78125 -11.671875 L 11.78125 -10.296875 C 11.78125 -8.085938 11.90625 -5.242188 12.15625 -1.765625 L 12.15625 -1.8125 C 12.195312 -1.5625 12.21875 -1.132812 12.21875 -0.53125 C 11.007812 0.03125 9.015625 0.3125 6.234375 0.3125 L 4.953125 0.265625 L 2.140625 0.265625 C 1.742188 0.265625 1.546875 -2.953125 1.546875 -9.390625 C 1.546875 -15.210938 1.488281 -21.046875 1.375 -26.890625 C 1.269531 -32.742188 1.113281 -36.257812 0.90625 -37.4375 L 2.34375 -37.65625 C 4.476562 -37.9375 6.238281 -38.144531 7.625 -38.28125 C 9.007812 -38.425781 10.429688 -38.5 11.890625 -38.5 C 13.453125 -38.5 14.785156 -38.429688 15.890625 -38.296875 C 17.953125 -38.046875 19.878906 -37.332031 21.671875 -36.15625 C 23.472656 -34.976562 24.914062 -33.535156 26 -31.828125 C 27.082031 -30.128906 27.625 -28.375 27.625 -26.5625 C 27.625 -24.8125 27.054688 -22.90625 25.921875 -20.84375 C 25.203125 -19.570312 24.253906 -18.507812 23.078125 -17.65625 C 21.910156 -16.800781 20.507812 -16.285156 18.875 -16.109375 C 19.832031 -14.398438 20.953125 -12.617188 22.234375 -10.765625 C 22.484375 -10.335938 22.679688 -10.054688 22.828125 -9.921875 Z M 15.140625 -23.515625 C 15.640625 -23.660156 16.03125 -24.015625 16.3125 -24.578125 C 16.601562 -25.148438 16.75 -25.828125 16.75 -26.609375 C 16.75 -28.066406 16.390625 -29.007812 15.671875 -29.4375 C 15.210938 -29.71875 14.742188 -29.894531 14.265625 -29.96875 C 13.785156 -30.039062 13.242188 -30.078125 12.640625 -30.078125 L 10.34375 -29.703125 C 10.414062 -28.640625 10.453125 -27.734375 10.453125 -26.984375 C 10.453125 -25.066406 10.503906 -23.894531 10.609375 -23.46875 C 11.210938 -23.394531 11.960938 -23.359375 12.859375 -23.359375 C 13.671875 -23.359375 14.429688 -23.410156 15.140625 -23.515625 Z M 15.140625 -23.515625 "/></g></g></g></svg>